<mxfile host="app.diagrams.net" agent="Mozilla/5.0 (X11; Linux x86_64) AppleWebKit/537.36 (KHTML, like Gecko) Chrome/126.0.0.0 Safari/537.36" version="24.7.6">
  <diagram id="g6ipbex8fvYEfsAlG5LH" name="Page-1">
    <mxGraphModel dx="1366" dy="746" grid="0" gridSize="10" guides="1" tooltips="1" connect="1" arrows="1" fold="1" page="1" pageScale="1" pageWidth="827" pageHeight="1169" math="0" shadow="0">
      <root>
        <mxCell id="0" />
        <mxCell id="1" parent="0" />
        <mxCell id="tlBtJ_69kYlSX9ahTMgg-1" value="Motion" style="rounded=1;whiteSpace=wrap;html=1;fontSize=18;labelBackgroundColor=none;sketch=1;curveFitting=1;jiggle=2;" vertex="1" parent="1">
          <mxGeometry x="200" y="120" width="120" height="60" as="geometry" />
        </mxCell>
        <mxCell id="tlBtJ_69kYlSX9ahTMgg-2" value="Camera" style="rounded=1;whiteSpace=wrap;html=1;fontSize=18;labelBackgroundColor=none;sketch=1;curveFitting=1;jiggle=2;" vertex="1" parent="1">
          <mxGeometry x="361" y="120" width="120" height="60" as="geometry" />
        </mxCell>
        <mxCell id="tlBtJ_69kYlSX9ahTMgg-3" value="RFID" style="rounded=1;whiteSpace=wrap;html=1;fontSize=18;labelBackgroundColor=none;sketch=1;curveFitting=1;jiggle=2;" vertex="1" parent="1">
          <mxGeometry x="520" y="120" width="120" height="60" as="geometry" />
        </mxCell>
        <mxCell id="tlBtJ_69kYlSX9ahTMgg-4" value="&lt;font style=&quot;font-size: 22px;&quot;&gt;Microcontroller&lt;/font&gt;" style="rounded=1;whiteSpace=wrap;html=1;labelBackgroundColor=none;sketch=1;curveFitting=1;jiggle=2;" vertex="1" parent="1">
          <mxGeometry x="325" y="240" width="190" height="130" as="geometry" />
        </mxCell>
        <mxCell id="tlBtJ_69kYlSX9ahTMgg-5" value="Communication Module" style="rounded=1;whiteSpace=wrap;html=1;fontSize=18;labelBackgroundColor=none;sketch=1;curveFitting=1;jiggle=2;" vertex="1" parent="1">
          <mxGeometry x="190" y="430" width="130" height="60" as="geometry" />
        </mxCell>
        <mxCell id="tlBtJ_69kYlSX9ahTMgg-6" value="Control Unit" style="rounded=1;whiteSpace=wrap;html=1;fontSize=18;labelBackgroundColor=none;sketch=1;curveFitting=1;jiggle=2;" vertex="1" parent="1">
          <mxGeometry x="360" y="430" width="120" height="60" as="geometry" />
        </mxCell>
        <mxCell id="tlBtJ_69kYlSX9ahTMgg-7" value="Cloud Storage" style="rounded=1;whiteSpace=wrap;html=1;fontSize=18;labelBackgroundColor=none;sketch=1;curveFitting=1;jiggle=2;" vertex="1" parent="1">
          <mxGeometry x="520" y="430" width="120" height="60" as="geometry" />
        </mxCell>
        <mxCell id="tlBtJ_69kYlSX9ahTMgg-9" style="edgeStyle=orthogonalEdgeStyle;rounded=0;orthogonalLoop=1;jettySize=auto;html=1;exitX=0.5;exitY=1;exitDx=0;exitDy=0;labelBackgroundColor=none;fontColor=default;sketch=1;curveFitting=1;jiggle=2;" edge="1" parent="1" source="tlBtJ_69kYlSX9ahTMgg-7" target="tlBtJ_69kYlSX9ahTMgg-7">
          <mxGeometry relative="1" as="geometry" />
        </mxCell>
        <mxCell id="tlBtJ_69kYlSX9ahTMgg-10" value="" style="endArrow=classic;html=1;rounded=0;entryX=0.5;entryY=0;entryDx=0;entryDy=0;labelBackgroundColor=none;fontColor=default;sketch=1;curveFitting=1;jiggle=2;" edge="1" parent="1" target="tlBtJ_69kYlSX9ahTMgg-4">
          <mxGeometry width="50" height="50" relative="1" as="geometry">
            <mxPoint x="420" y="180" as="sourcePoint" />
            <mxPoint x="200" y="330" as="targetPoint" />
          </mxGeometry>
        </mxCell>
        <mxCell id="tlBtJ_69kYlSX9ahTMgg-11" value="" style="endArrow=classic;html=1;rounded=0;exitX=0.5;exitY=1;exitDx=0;exitDy=0;entryX=0.618;entryY=-0.007;entryDx=0;entryDy=0;entryPerimeter=0;labelBackgroundColor=none;fontColor=default;sketch=1;curveFitting=1;jiggle=2;" edge="1" parent="1" source="tlBtJ_69kYlSX9ahTMgg-3" target="tlBtJ_69kYlSX9ahTMgg-4">
          <mxGeometry width="50" height="50" relative="1" as="geometry">
            <mxPoint x="431" y="190" as="sourcePoint" />
            <mxPoint x="430" y="250" as="targetPoint" />
          </mxGeometry>
        </mxCell>
        <mxCell id="tlBtJ_69kYlSX9ahTMgg-12" value="" style="endArrow=classic;html=1;rounded=0;exitX=0.5;exitY=1;exitDx=0;exitDy=0;entryX=0.38;entryY=-0.015;entryDx=0;entryDy=0;entryPerimeter=0;labelBackgroundColor=none;fontColor=default;sketch=1;curveFitting=1;jiggle=2;" edge="1" parent="1" source="tlBtJ_69kYlSX9ahTMgg-1" target="tlBtJ_69kYlSX9ahTMgg-4">
          <mxGeometry width="50" height="50" relative="1" as="geometry">
            <mxPoint x="590" y="190" as="sourcePoint" />
            <mxPoint x="452" y="249" as="targetPoint" />
          </mxGeometry>
        </mxCell>
        <mxCell id="tlBtJ_69kYlSX9ahTMgg-13" value="" style="endArrow=classic;html=1;rounded=0;exitX=0.5;exitY=1;exitDx=0;exitDy=0;labelBackgroundColor=none;fontColor=default;sketch=1;curveFitting=1;jiggle=2;" edge="1" parent="1" source="tlBtJ_69kYlSX9ahTMgg-4" target="tlBtJ_69kYlSX9ahTMgg-6">
          <mxGeometry width="50" height="50" relative="1" as="geometry">
            <mxPoint x="430" y="190" as="sourcePoint" />
            <mxPoint x="430" y="250" as="targetPoint" />
          </mxGeometry>
        </mxCell>
        <mxCell id="tlBtJ_69kYlSX9ahTMgg-14" value="" style="endArrow=classic;html=1;rounded=0;exitX=0.588;exitY=1.012;exitDx=0;exitDy=0;exitPerimeter=0;entryX=0.5;entryY=0;entryDx=0;entryDy=0;labelBackgroundColor=none;fontColor=default;sketch=1;curveFitting=1;jiggle=2;" edge="1" parent="1" source="tlBtJ_69kYlSX9ahTMgg-4" target="tlBtJ_69kYlSX9ahTMgg-7">
          <mxGeometry width="50" height="50" relative="1" as="geometry">
            <mxPoint x="430" y="380" as="sourcePoint" />
            <mxPoint x="430" y="440" as="targetPoint" />
          </mxGeometry>
        </mxCell>
        <mxCell id="tlBtJ_69kYlSX9ahTMgg-15" value="" style="endArrow=classic;html=1;rounded=0;exitX=0.393;exitY=1.004;exitDx=0;exitDy=0;exitPerimeter=0;entryX=0.5;entryY=0;entryDx=0;entryDy=0;labelBackgroundColor=none;fontColor=default;sketch=1;curveFitting=1;jiggle=2;" edge="1" parent="1" source="tlBtJ_69kYlSX9ahTMgg-4" target="tlBtJ_69kYlSX9ahTMgg-5">
          <mxGeometry width="50" height="50" relative="1" as="geometry">
            <mxPoint x="447" y="382" as="sourcePoint" />
            <mxPoint x="590" y="440" as="targetPoint" />
          </mxGeometry>
        </mxCell>
      </root>
    </mxGraphModel>
  </diagram>
</mxfile>
